<svg width="32" height="32" viewBox="0 0 120 120" fill="none" xmlns="http://www.w3.org/2000/svg">
  <path d="M60 8L16 28V58C16 84 36 106 60 114C84 106 104 84 104 58V28L60 8Z" fill="#065F46" stroke="#064E3B" stroke-width="2"/>
  <path d="M60 14L22 32V58C22 80.5 39.5 100 60 107.5C80.5 100 98 80.5 98 58V32L60 14Z" fill="#047857" stroke="#065F46" stroke-width="1"/>
  <path d="M60 20L28 36V56C28 56 28 56 28 56L60 42L92 56V36L60 20Z" fill="#0E7490" opacity="0.3"/>
  <polygon points="60,28 48,58 52,58 44,72 56,72 56,80 64,80 64,72 76,72 68,58 72,58" fill="#ECFDF5"/>
  <polygon points="38,48 32,66 35,66 30,78 42,78 42,82 46,82 46,78 50,78 45,66 48,66" fill="#D1FAE5" opacity="0.85"/>
  <polygon points="82,48 76,66 79,66 74,78 86,78 86,82 90,82 90,78 94,78 89,66 92,66" fill="#D1FAE5" opacity="0.85"/>
  <path d="M32 88C38 84 44 88 50 84C56 80 58 84 60 86C62 84 64 80 70 84C76 88 82 84 88 88" stroke="#A7F3D0" stroke-width="2.5" fill="none" stroke-linecap="round"/>
  <path d="M35 94C41 90 47 94 53 90C59 86 61 90 63 92C65 90 67 86 73 90C79 94 85 90 91 94" stroke="#6EE7B7" stroke-width="2" fill="none" stroke-linecap="round" opacity="0.7"/>
  <circle cx="60" cy="24" r="2.5" fill="#FDE68A"/>
</svg>
